<svg viewBox="0 0 24 24" width="120" height="120" xmlns="http://www.w3.org/2000/svg">
  <!-- Left list -->
  <rect x="2" y="3" width="7" height="18" rx="1" stroke="#4A5568" stroke-width="1.5" fill="none"/>
  <line x1="3.5" y1="6" x2="7.5" y2="6" stroke="#4A5568" stroke-width="1.2" stroke-linecap="round"/>
  <line x1="3.5" y1="9" x2="7.5" y2="9" stroke="#4A5568" stroke-width="1.2" stroke-linecap="round"/>
  <line x1="3.5" y1="12" x2="7.5" y2="12" stroke="#4A5568" stroke-width="1.2" stroke-linecap="round"/>

  <!-- Right list -->
  <rect x="15" y="3" width="7" height="18" rx="1" stroke="#4A5568" stroke-width="1.5" fill="none"/>
  <line x1="16.5" y1="6" x2="20.5" y2="6" stroke="#4A5568" stroke-width="1.2" stroke-linecap="round"/>
  <line x1="16.5" y1="9" x2="20.5" y2="9" stroke="#4A5568" stroke-width="1.2" stroke-linecap="round"/>

  <!-- Moving item -->
  <rect x="9.5" y="13.5" width="5" height="2" rx="0.5" fill="#3B82F6" stroke="#2563EB" stroke-width="1"/>

  <!-- Drag dots -->
  <circle cx="11" cy="14.5" r="0.35" fill="white"/>
  <circle cx="12" cy="14.5" r="0.35" fill="white"/>
  <circle cx="13" cy="14.5" r="0.35" fill="white"/>

  <!-- Curved line -->
  <path
    d="M7 18 C10 20 15 20 17 18"
    stroke="#3B82F6"
    stroke-width="1.4"
    fill="none"
    stroke-linecap="round"/>

  <!-- Arrowhead -->
  <path
    d="M16 17.2 L17.8 18 L17.5 19.5"
    stroke="#3B82F6"
    stroke-width="1.5"
    stroke-linecap="round"
    stroke-linejoin="round"
    fill="none"/>
</svg>